{
	"asset":{
		"generator":"Khronos glTF Blender I/O v4.3.47",
		"version":"2.0"
	},
	"scene":0,
	"scenes":[
		{
			"name":"Scene",
			"nodes":[
				0,
				1,
				2,
				3,
				4,
				5,
				6,
				7,
				8
			]
		}
	],
	"nodes":[
		{
			"mesh":0,
			"name":"Cube",
			"scale":[
				1,
				1,
				0.3028460144996643
			],
			"translation":[
				0,
				1.3609000444412231,
				0
			]
		},
		{
			"mesh":1,
			"name":"Cube.001",
			"rotation":[
				0,
				0,
				-1,
				0
			],
			"scale":[
				-0.9588539004325867,
				-0.9588539004325867,
				-0.06664332747459412
			],
			"translation":[
				-0.9579215049743652,
				1.4246912002563477,
				0.3028509318828583
			]
		},
		{
			"mesh":2,
			"name":"Cube.002",
			"rotation":[
				0.09337229281663895,
				0,
				0,
				0.9956312775611877
			],
			"scale":[
				0.2852572202682495,
				0.03716014325618744,
				0.03716014325618744
			],
			"translation":[
				0.40980103611946106,
				1.2957502603530884,
				-0.10536284744739532
			]
		},
		{
			"mesh":3,
			"name":"Cylinder",
			"scale":[
				0.01571667566895485,
				0.33326491713523865,
				0.01571667566895485
			],
			"translation":[
				-0.7145794034004211,
				1.4629688262939453,
				-0.09101372212171555
			]
		},
		{
			"mesh":4,
			"name":"Cylinder.001",
			"scale":[
				0.01571667566895485,
				0.33326491713523865,
				0.01571667566895485
			],
			"translation":[
				-0.6138409376144409,
				1.4629688262939453,
				-0.09101372212171555
			]
		},
		{
			"mesh":5,
			"name":"Cylinder.002",
			"scale":[
				0.01571667566895485,
				0.33326491713523865,
				0.01571667566895485
			],
			"translation":[
				-0.5268394947052002,
				1.4629688262939453,
				-0.09101372212171555
			]
		},
		{
			"mesh":6,
			"name":"Cylinder.003",
			"scale":[
				0.01571667566895485,
				0.33326491713523865,
				0.01571667566895485
			],
			"translation":[
				-0.4489961266517639,
				1.4629688262939453,
				-0.09101372212171555
			]
		},
		{
			"mesh":7,
			"name":"Cube.003",
			"scale":[
				0.1602194905281067,
				0.03323370963335037,
				0.037504542618989944
			],
			"translation":[
				-0.5449315905570984,
				1.8588898181915283,
				-0.08204422146081924
			]
		},
		{
			"mesh":8,
			"name":"Cube.004",
			"rotation":[
				0,
				0,
				-1,
				4.5964805312631585e-14
			],
			"scale":[
				0.1602194905281067,
				0.03323370963335037,
				0.037504542618989944
			],
			"translation":[
				-0.5665853023529053,
				1.0626766681671143,
				-0.08204422146081924
			]
		}
	],
	"materials":[
		{
			"doubleSided":true,
			"extras":{
				"mmd_material":{}
			},
			"name":"Material.007",
			"pbrMetallicRoughness":{
				"roughnessFactor":0.49082568287849426
			}
		},
		{
			"doubleSided":true,
			"extras":{
				"mmd_material":{}
			},
			"name":"Material.011",
			"pbrMetallicRoughness":{
				"baseColorFactor":[
					0.8002749681472778,
					0.5786919593811035,
					0.00399590190500021,
					1
				],
				"metallicFactor":0,
				"roughnessFactor":0.5
			}
		},
		{
			"doubleSided":true,
			"extras":{
				"mmd_material":{}
			},
			"name":"Material.009",
			"pbrMetallicRoughness":{
				"baseColorFactor":[
					0.43156149983406067,
					0.41407597064971924,
					0.4592444598674774,
					1
				],
				"metallicFactor":0.752293586730957,
				"roughnessFactor":0.5
			}
		},
		{
			"doubleSided":true,
			"extras":{
				"mmd_material":{}
			},
			"name":"Material.010",
			"pbrMetallicRoughness":{
				"baseColorFactor":[
					0.32207849621772766,
					0.007687899749726057,
					0.012620409950613976,
					1
				],
				"metallicFactor":0,
				"roughnessFactor":0.5
			}
		},
		{
			"doubleSided":true,
			"extras":{
				"mmd_material":{}
			},
			"name":"Material.004",
			"pbrMetallicRoughness":{
				"baseColorFactor":[
					0.5200768113136292,
					0.4370167851448059,
					0.001002402976155281,
					1
				],
				"metallicFactor":0,
				"roughnessFactor":0.5
			}
		},
		{
			"doubleSided":true,
			"extras":{
				"mmd_material":{}
			},
			"name":"Material.003",
			"pbrMetallicRoughness":{
				"baseColorFactor":[
					0.014739318750798702,
					0.01628587394952774,
					0.3281395435333252,
					1
				],
				"metallicFactor":0,
				"roughnessFactor":0.5
			}
		},
		{
			"doubleSided":true,
			"extras":{
				"mmd_material":{}
			},
			"name":"Material.002",
			"pbrMetallicRoughness":{
				"baseColorFactor":[
					0.5852504968643188,
					0.0035784277133643627,
					0,
					1
				],
				"metallicFactor":0,
				"roughnessFactor":0.5
			}
		},
		{
			"doubleSided":true,
			"extras":{
				"mmd_material":{}
			},
			"name":"Material.001",
			"pbrMetallicRoughness":{
				"baseColorFactor":[
					0.047750502824783325,
					0.3528255522251129,
					0.015498379245400429,
					1
				],
				"metallicFactor":0,
				"roughnessFactor":0.5
			}
		},
		{
			"doubleSided":true,
			"extras":{
				"mmd_material":{}
			},
			"name":"Material.005",
			"pbrMetallicRoughness":{
				"baseColorFactor":[
					0.3220788836479187,
					0.3220788836479187,
					0.3220788836479187,
					1
				],
				"metallicFactor":0.5045871734619141,
				"roughnessFactor":0.5
			}
		},
		{
			"doubleSided":true,
			"extras":{
				"mmd_material":{}
			},
			"name":"Material.006",
			"pbrMetallicRoughness":{
				"baseColorFactor":[
					0.3275836408138275,
					0.3523843288421631,
					0.31074416637420654,
					1
				],
				"metallicFactor":0,
				"roughnessFactor":0.5
			}
		}
	],
	"meshes":[
		{
			"name":"Cube.001",
			"primitives":[
				{
					"attributes":{
						"POSITION":0,
						"NORMAL":1,
						"TEXCOORD_0":2,
						"TANGENT":3
					},
					"indices":4,
					"material":0
				}
			]
		},
		{
			"name":"Cube.002",
			"primitives":[
				{
					"attributes":{
						"POSITION":5,
						"NORMAL":6,
						"TEXCOORD_0":7
					},
					"indices":8,
					"material":0
				},
				{
					"attributes":{
						"POSITION":9,
						"NORMAL":10,
						"TEXCOORD_0":11
					},
					"indices":12,
					"material":1
				}
			]
		},
		{
			"name":"Cube.003",
			"primitives":[
				{
					"attributes":{
						"POSITION":13,
						"NORMAL":14,
						"TEXCOORD_0":15
					},
					"indices":16,
					"material":2
				},
				{
					"attributes":{
						"POSITION":17,
						"NORMAL":18,
						"TEXCOORD_0":19
					},
					"indices":20,
					"material":3
				}
			]
		},
		{
			"name":"Cylinder.003",
			"primitives":[
				{
					"attributes":{
						"POSITION":21,
						"NORMAL":22,
						"TEXCOORD_0":23
					},
					"indices":24,
					"material":4
				}
			]
		},
		{
			"name":"Cylinder.004",
			"primitives":[
				{
					"attributes":{
						"POSITION":25,
						"NORMAL":26,
						"TEXCOORD_0":27
					},
					"indices":28,
					"material":5
				}
			]
		},
		{
			"name":"Cylinder.005",
			"primitives":[
				{
					"attributes":{
						"POSITION":29,
						"NORMAL":30,
						"TEXCOORD_0":31
					},
					"indices":32,
					"material":6
				}
			]
		},
		{
			"name":"Cylinder.006",
			"primitives":[
				{
					"attributes":{
						"POSITION":33,
						"NORMAL":34,
						"TEXCOORD_0":35
					},
					"indices":36,
					"material":7
				}
			]
		},
		{
			"name":"Cube.004",
			"primitives":[
				{
					"attributes":{
						"POSITION":37,
						"NORMAL":38,
						"TEXCOORD_0":39
					},
					"indices":40,
					"material":8
				},
				{
					"attributes":{
						"POSITION":41,
						"NORMAL":42,
						"TEXCOORD_0":43
					},
					"indices":44,
					"material":9
				}
			]
		},
		{
			"name":"Cube.005",
			"primitives":[
				{
					"attributes":{
						"POSITION":45,
						"NORMAL":46,
						"TEXCOORD_0":47
					},
					"indices":40,
					"material":8
				},
				{
					"attributes":{
						"POSITION":48,
						"NORMAL":49,
						"TEXCOORD_0":50
					},
					"indices":44,
					"material":9
				}
			]
		}
	],
	"accessors":[
		{
			"bufferView":0,
			"componentType":5126,
			"count":2506,
			"max":[
				1,
				1,
				1
			],
			"min":[
				-1,
				-1,
				-1
			],
			"type":"VEC3"
		},
		{
			"bufferView":1,
			"componentType":5126,
			"count":2506,
			"type":"VEC3"
		},
		{
			"bufferView":2,
			"componentType":5126,
			"count":2506,
			"type":"VEC2"
		},
		{
			"bufferView":3,
			"componentType":5126,
			"count":2506,
			"type":"VEC4"
		},
		{
			"bufferView":4,
			"componentType":5123,
			"count":13056,
			"type":"SCALAR"
		},
		{
			"bufferView":5,
			"componentType":5126,
			"count":613,
			"max":[
				2.02105712890625,
				0.9353805780410767,
				0.2325880527496338
			],
			"min":[
				-0.01743018627166748,
				-1.0646194219589233,
				-2.183762788772583
			],
			"type":"VEC3"
		},
		{
			"bufferView":6,
			"componentType":5126,
			"count":613,
			"type":"VEC3"
		},
		{
			"bufferView":7,
			"componentType":5126,
			"count":613,
			"type":"VEC2"
		},
		{
			"bufferView":8,
			"componentType":5123,
			"count":2574,
			"type":"SCALAR"
		},
		{
			"bufferView":9,
			"componentType":5126,
			"count":16,
			"max":[
				1.1743086576461792,
				0.19424442946910858,
				-2.183762550354004
			],
			"min":[
				0.9348907470703125,
				-0.4207541346549988,
				-2.183762788772583
			],
			"type":"VEC3"
		},
		{
			"bufferView":10,
			"componentType":5126,
			"count":16,
			"type":"VEC3"
		},
		{
			"bufferView":11,
			"componentType":5126,
			"count":16,
			"type":"VEC2"
		},
		{
			"bufferView":12,
			"componentType":5123,
			"count":48,
			"type":"SCALAR"
		},
		{
			"bufferView":13,
			"componentType":5126,
			"count":110,
			"max":[
				1.3801593780517578,
				15.841949462890625,
				3.3813512325286865
			],
			"min":[
				-1.3251323699951172,
				-3.326944351196289,
				-3.245185375213623
			],
			"type":"VEC3"
		},
		{
			"bufferView":14,
			"componentType":5126,
			"count":110,
			"type":"VEC3"
		},
		{
			"bufferView":15,
			"componentType":5126,
			"count":110,
			"type":"VEC2"
		},
		{
			"bufferView":16,
			"componentType":5123,
			"count":186,
			"type":"SCALAR"
		},
		{
			"bufferView":17,
			"componentType":5126,
			"count":32,
			"max":[
				0.9998729825019836,
				17.841949462890625,
				0.9995903968811035
			],
			"min":[
				-1.0001269578933716,
				15.841949462890625,
				-1.0004096031188965
			],
			"type":"VEC3"
		},
		{
			"bufferView":18,
			"componentType":5126,
			"count":32,
			"type":"VEC3"
		},
		{
			"bufferView":19,
			"componentType":5126,
			"count":32,
			"type":"VEC2"
		},
		{
			"bufferView":20,
			"componentType":5123,
			"count":66,
			"type":"SCALAR"
		},
		{
			"bufferView":21,
			"componentType":5126,
			"count":198,
			"max":[
				4.469811916351318,
				1.0038166046142578,
				1.9938960075378418
			],
			"min":[
				-0.9898214340209961,
				-1,
				-0.8731985092163086
			],
			"type":"VEC3"
		},
		{
			"bufferView":22,
			"componentType":5126,
			"count":198,
			"type":"VEC3"
		},
		{
			"bufferView":23,
			"componentType":5126,
			"count":198,
			"type":"VEC2"
		},
		{
			"bufferView":24,
			"componentType":5123,
			"count":318,
			"type":"SCALAR"
		},
		{
			"bufferView":25,
			"componentType":5126,
			"count":154,
			"max":[
				5.521901607513428,
				1.0076332092285156,
				3.9335923194885254
			],
			"min":[
				-2.9321413040161133,
				-1,
				-0.599679708480835
			],
			"type":"VEC3"
		},
		{
			"bufferView":26,
			"componentType":5126,
			"count":154,
			"type":"VEC3"
		},
		{
			"bufferView":27,
			"componentType":5126,
			"count":154,
			"type":"VEC2"
		},
		{
			"bufferView":28,
			"componentType":5123,
			"count":252,
			"type":"SCALAR"
		},
		{
			"bufferView":29,
			"componentType":5126,
			"count":154,
			"max":[
				5.106011390686035,
				1.0064671039581299,
				4.005433082580566
			],
			"min":[
				-1.370055079460144,
				-1,
				-0.6324107646942139
			],
			"type":"VEC3"
		},
		{
			"bufferView":30,
			"componentType":5126,
			"count":154,
			"type":"VEC3"
		},
		{
			"bufferView":31,
			"componentType":5126,
			"count":154,
			"type":"VEC2"
		},
		{
			"bufferView":32,
			"componentType":5123,
			"count":252,
			"type":"SCALAR"
		},
		{
			"bufferView":33,
			"componentType":5126,
			"count":286,
			"max":[
				6.007482051849365,
				1.0012602806091309,
				4.876621723175049
			],
			"min":[
				-1.1121981143951416,
				-1,
				-0.8442741632461548
			],
			"type":"VEC3"
		},
		{
			"bufferView":34,
			"componentType":5126,
			"count":286,
			"type":"VEC3"
		},
		{
			"bufferView":35,
			"componentType":5126,
			"count":286,
			"type":"VEC2"
		},
		{
			"bufferView":36,
			"componentType":5123,
			"count":450,
			"type":"SCALAR"
		},
		{
			"bufferView":37,
			"componentType":5126,
			"count":78,
			"max":[
				1,
				1,
				1
			],
			"min":[
				-1,
				-1,
				-1
			],
			"type":"VEC3"
		},
		{
			"bufferView":38,
			"componentType":5126,
			"count":78,
			"type":"VEC3"
		},
		{
			"bufferView":39,
			"componentType":5126,
			"count":78,
			"type":"VEC2"
		},
		{
			"bufferView":40,
			"componentType":5123,
			"count":156,
			"type":"SCALAR"
		},
		{
			"bufferView":41,
			"componentType":5126,
			"count":180,
			"max":[
				0.8793895244598389,
				-0.8955758213996887,
				0.5768452286720276
			],
			"min":[
				-0.8844325542449951,
				-2.3144919872283936,
				-0.6425781846046448
			],
			"type":"VEC3"
		},
		{
			"bufferView":42,
			"componentType":5126,
			"count":180,
			"type":"VEC3"
		},
		{
			"bufferView":43,
			"componentType":5126,
			"count":180,
			"type":"VEC2"
		},
		{
			"bufferView":44,
			"componentType":5123,
			"count":300,
			"type":"SCALAR"
		},
		{
			"bufferView":45,
			"componentType":5126,
			"count":78,
			"max":[
				1,
				1,
				1
			],
			"min":[
				-1,
				-1,
				-1
			],
			"type":"VEC3"
		},
		{
			"bufferView":46,
			"componentType":5126,
			"count":78,
			"type":"VEC3"
		},
		{
			"bufferView":47,
			"componentType":5126,
			"count":78,
			"type":"VEC2"
		},
		{
			"bufferView":48,
			"componentType":5126,
			"count":180,
			"max":[
				0.8793895244598389,
				-0.8955758213996887,
				0.5768452286720276
			],
			"min":[
				-0.8844325542449951,
				-2.3144919872283936,
				-0.6425781846046448
			],
			"type":"VEC3"
		},
		{
			"bufferView":49,
			"componentType":5126,
			"count":180,
			"type":"VEC3"
		},
		{
			"bufferView":50,
			"componentType":5126,
			"count":180,
			"type":"VEC2"
		}
	],
	"bufferViews":[
		{
			"buffer":0,
			"byteLength":30072,
			"byteOffset":0,
			"target":34962
		},
		{
			"buffer":0,
			"byteLength":30072,
			"byteOffset":30072,
			"target":34962
		},
		{
			"buffer":0,
			"byteLength":20048,
			"byteOffset":60144,
			"target":34962
		},
		{
			"buffer":0,
			"byteLength":40096,
			"byteOffset":80192,
			"target":34962
		},
		{
			"buffer":0,
			"byteLength":26112,
			"byteOffset":120288,
			"target":34963
		},
		{
			"buffer":0,
			"byteLength":7356,
			"byteOffset":146400,
			"target":34962
		},
		{
			"buffer":0,
			"byteLength":7356,
			"byteOffset":153756,
			"target":34962
		},
		{
			"buffer":0,
			"byteLength":4904,
			"byteOffset":161112,
			"target":34962
		},
		{
			"buffer":0,
			"byteLength":5148,
			"byteOffset":166016,
			"target":34963
		},
		{
			"buffer":0,
			"byteLength":192,
			"byteOffset":171164,
			"target":34962
		},
		{
			"buffer":0,
			"byteLength":192,
			"byteOffset":171356,
			"target":34962
		},
		{
			"buffer":0,
			"byteLength":128,
			"byteOffset":171548,
			"target":34962
		},
		{
			"buffer":0,
			"byteLength":96,
			"byteOffset":171676,
			"target":34963
		},
		{
			"buffer":0,
			"byteLength":1320,
			"byteOffset":171772,
			"target":34962
		},
		{
			"buffer":0,
			"byteLength":1320,
			"byteOffset":173092,
			"target":34962
		},
		{
			"buffer":0,
			"byteLength":880,
			"byteOffset":174412,
			"target":34962
		},
		{
			"buffer":0,
			"byteLength":372,
			"byteOffset":175292,
			"target":34963
		},
		{
			"buffer":0,
			"byteLength":384,
			"byteOffset":175664,
			"target":34962
		},
		{
			"buffer":0,
			"byteLength":384,
			"byteOffset":176048,
			"target":34962
		},
		{
			"buffer":0,
			"byteLength":256,
			"byteOffset":176432,
			"target":34962
		},
		{
			"buffer":0,
			"byteLength":132,
			"byteOffset":176688,
			"target":34963
		},
		{
			"buffer":0,
			"byteLength":2376,
			"byteOffset":176820,
			"target":34962
		},
		{
			"buffer":0,
			"byteLength":2376,
			"byteOffset":179196,
			"target":34962
		},
		{
			"buffer":0,
			"byteLength":1584,
			"byteOffset":181572,
			"target":34962
		},
		{
			"buffer":0,
			"byteLength":636,
			"byteOffset":183156,
			"target":34963
		},
		{
			"buffer":0,
			"byteLength":1848,
			"byteOffset":183792,
			"target":34962
		},
		{
			"buffer":0,
			"byteLength":1848,
			"byteOffset":185640,
			"target":34962
		},
		{
			"buffer":0,
			"byteLength":1232,
			"byteOffset":187488,
			"target":34962
		},
		{
			"buffer":0,
			"byteLength":504,
			"byteOffset":188720,
			"target":34963
		},
		{
			"buffer":0,
			"byteLength":1848,
			"byteOffset":189224,
			"target":34962
		},
		{
			"buffer":0,
			"byteLength":1848,
			"byteOffset":191072,
			"target":34962
		},
		{
			"buffer":0,
			"byteLength":1232,
			"byteOffset":192920,
			"target":34962
		},
		{
			"buffer":0,
			"byteLength":504,
			"byteOffset":194152,
			"target":34963
		},
		{
			"buffer":0,
			"byteLength":3432,
			"byteOffset":194656,
			"target":34962
		},
		{
			"buffer":0,
			"byteLength":3432,
			"byteOffset":198088,
			"target":34962
		},
		{
			"buffer":0,
			"byteLength":2288,
			"byteOffset":201520,
			"target":34962
		},
		{
			"buffer":0,
			"byteLength":900,
			"byteOffset":203808,
			"target":34963
		},
		{
			"buffer":0,
			"byteLength":936,
			"byteOffset":204708,
			"target":34962
		},
		{
			"buffer":0,
			"byteLength":936,
			"byteOffset":205644,
			"target":34962
		},
		{
			"buffer":0,
			"byteLength":624,
			"byteOffset":206580,
			"target":34962
		},
		{
			"buffer":0,
			"byteLength":312,
			"byteOffset":207204,
			"target":34963
		},
		{
			"buffer":0,
			"byteLength":2160,
			"byteOffset":207516,
			"target":34962
		},
		{
			"buffer":0,
			"byteLength":2160,
			"byteOffset":209676,
			"target":34962
		},
		{
			"buffer":0,
			"byteLength":1440,
			"byteOffset":211836,
			"target":34962
		},
		{
			"buffer":0,
			"byteLength":600,
			"byteOffset":213276,
			"target":34963
		},
		{
			"buffer":0,
			"byteLength":936,
			"byteOffset":213876,
			"target":34962
		},
		{
			"buffer":0,
			"byteLength":936,
			"byteOffset":214812,
			"target":34962
		},
		{
			"buffer":0,
			"byteLength":624,
			"byteOffset":215748,
			"target":34962
		},
		{
			"buffer":0,
			"byteLength":2160,
			"byteOffset":216372,
			"target":34962
		},
		{
			"buffer":0,
			"byteLength":2160,
			"byteOffset":218532,
			"target":34962
		},
		{
			"buffer":0,
			"byteLength":1440,
			"byteOffset":220692,
			"target":34962
		}
	],
	"buffers":[
		{
			"byteLength":222132,
			"uri":"el%20box-06399cc7fa45a57b1c884cb43a642e5a.bin"
		}
	]
}
